<?xml version="1.0" encoding="iso-8859-1"?>
<!-- Generator: Adobe Illustrator 19.0.0, SVG Export Plug-In . SVG Version: 6.00 Build 0)  -->
<svg version="1.1" id="Layer_1" xmlns="http://www.w3.org/2000/svg" xmlns:xlink="http://www.w3.org/1999/xlink" x="0px" y="0px"
	 viewBox="0 0 512 512" style="enable-background:new 0 0 512 512;" xml:space="preserve">
<path style="fill:#FF9FC9;" d="M110.354,367.512c-28.706-5.875-50.299-31.272-50.299-61.715c0-11.419,3.054-22.118,8.365-31.353
	c-25.643-10.106-43.798-35.081-43.798-64.314c0-36.798,28.757-66.868,65.022-68.99c-4.014-8.758-6.268-18.49-6.268-28.755
	c0-38.175,30.946-69.121,69.121-69.121c12.925,0,25.016,3.557,35.363,9.732c10.308-25.22,35.072-42.996,63.999-42.996
	c22.348,0,42.207,10.615,54.843,27.069c7.656-2.924,15.96-4.54,24.643-4.54c38.175,0,69.121,30.946,69.121,69.121
	c0,4.026-0.364,7.964-1.024,11.801c3.611-0.691,7.334-1.066,11.147-1.066c32.584,0,58.999,26.415,58.999,58.999
	c0,18.817-8.82,35.564-22.54,46.367c23.924,12.14,40.33,36.956,40.33,65.621c0,40.626-32.933,73.56-73.56,73.56h-19.304"/>
<path style="fill:#FFFFFF;" d="M294.855,117.468v110.036v1.246c56.278,18.145,96.992,70.948,96.992,133.262
	c0,77.314-62.675,139.989-139.989,139.989S111.87,439.326,111.87,362.012c0-62.313,40.714-115.118,96.991-133.261l0.001-1.247
	V117.468H294.855z"/>
<g>
	<path style="fill:#CC6BC2;" d="M111.87,362.011C111.87,439.325,174.545,502,251.859,502s139.989-62.675,139.989-139.989
		c0-13.17-1.825-25.913-5.226-37.997H117.096C113.696,336.098,111.87,348.841,111.87,362.011z"/>
	<circle style="fill:#CC6BC2;" cx="227.932" cy="279.247" r="18.998"/>
	<circle style="fill:#CC6BC2;" cx="294.736" cy="387.558" r="24.018"/>
</g>
<path d="M277.984,415.232c-2.559,0-5.119-0.977-7.07-2.929l-0.251-0.257c-3.82-3.989-3.683-10.318,0.305-14.138
	c3.979-3.809,10.283-3.684,14.105,0.271c3.887,3.907,3.881,10.224-0.018,14.124C283.101,414.256,280.542,415.232,277.984,415.232z"
	/>
<path d="M298.624,421.535c-4.794,0-9.027-3.458-9.849-8.342c-0.916-5.447,2.757-10.603,8.203-11.519
	c6.823-1.147,11.776-7.015,11.776-13.953c0-7.801-6.348-14.15-14.151-14.149c-6.968,0-12.987,5.184-14,12.059
	c-0.805,5.464-5.888,9.237-11.349,8.435c-5.464-0.805-9.24-5.885-8.435-11.349c2.447-16.614,16.972-29.144,33.783-29.144
	c0.001,0,0,0,0.001,0c18.828,0,34.148,15.318,34.149,34.147c0,16.741-11.969,30.902-28.459,33.674
	C299.734,421.49,299.175,421.535,298.624,421.535z"/>
<path d="M251.986,467.962c-8.27,0-14.999-6.728-14.999-14.999c0-8.27,6.728-14.999,14.999-14.999s14.999,6.728,14.999,14.999
	C266.985,461.233,260.256,467.962,251.986,467.962z"/>
<path d="M198.218,415.13c-8.27,0-14.999-6.728-14.999-14.999c0-8.27,6.728-14.999,14.999-14.999c8.27,0,14.999,6.728,14.999,14.999
	C213.217,408.401,206.489,415.13,198.218,415.13z"/>
<path d="M251.986,214.394c-8.27,0-14.999-6.728-14.999-14.999c0-8.27,6.728-14.999,14.999-14.999s14.999,6.728,14.999,14.999
	C266.985,207.666,260.256,214.394,251.986,214.394z"/>
<path d="M227.935,308.25c-15.99,0-28.998-13.008-28.998-28.998s13.008-28.998,28.998-28.998s28.998,13.008,28.998,28.998
	S243.924,308.25,227.935,308.25z M227.935,270.253c-4.962,0-8.999,4.038-8.999,8.999c0,4.962,4.038,8.999,8.999,8.999
	c4.962,0,8.999-4.038,8.999-8.999C236.934,274.29,232.896,270.253,227.935,270.253z"/>
<path d="M463.238,215.986c10.51-12.35,16.349-28.017,16.349-44.602c0-38.046-30.952-68.998-68.998-68.998c-0.042,0-0.085,0-0.127,0
	c0.002-0.246,0.003-0.491,0.003-0.736c0-43.627-35.493-79.121-79.121-79.121c-7.264,0-14.419,0.983-21.353,2.931
	C295.031,9.195,274.217,0,251.859,0c-28.645,0-54.511,15.208-68.511,39.521c-9.714-4.114-20.206-6.257-30.849-6.257
	c-43.627,0-79.121,35.494-79.121,79.121c0,7.036,0.912,13.931,2.72,20.612c-35.352,8.052-61.474,39.737-61.474,77.134
	c0,29.112,15.577,55.196,40.464,69.048c-3.31,8.448-5.031,17.488-5.031,26.619c0,32.502,21.731,61.054,52.46,70.055
	C109.525,452.092,173.822,512,251.859,512c81.057,0,147.293-64.634,149.899-145.069h12.061c46.074,0,83.558-37.484,83.558-83.558
	C497.377,256.349,484.576,231.573,463.238,215.986z M251.859,492.002c-71.676,0-129.989-58.313-129.989-129.989
	c0-9.574,1.057-18.942,3.035-27.998h219.947c5.523,0,9.999-4.477,9.999-9.999s-4.477-9.999-9.999-9.999H130.997
	c13.97-35.342,43.075-63.543,80.933-75.749c4.13-1.332,6.929-5.174,6.931-9.513V127.468h65.995v101.279
	c-0.002,4.342,2.799,8.188,6.931,9.52c53.869,17.368,90.062,67.096,90.062,123.745C381.848,433.688,323.535,492.002,251.859,492.002
	z M413.819,346.932h-12.714c-2.659-26.825-12.415-52.179-28.611-74.063c-17.353-23.446-40.626-41.041-67.638-51.215v-94.186h6.999
	c5.523,0,9.999-4.477,9.999-9.999s-4.477-9.999-9.999-9.999h-119.99c-5.523,0-9.999,4.477-9.999,9.999s4.477,9.999,9.999,9.999
	h6.999v94.187c-27.013,10.173-50.287,27.769-67.638,51.215c-17.705,23.922-27.707,51.992-29.162,81.594
	c-19.041-8.237-32.009-27.27-32.009-48.667c0-9.249,2.433-18.367,7.034-26.368c1.449-2.52,1.73-5.545,0.77-8.289
	c-0.96-2.744-3.067-4.934-5.772-6c-22.759-8.969-37.465-30.562-37.465-55.01c0-30.073,22.603-55.188,52.077-58.684
	c1.403-0.146,5.341-0.08,6.866-0.08c11.411,0,22.471,3.305,31.934,9.411c-14.879,17.779-13.978,44.374,2.721,61.074
	c1.953,1.953,4.512,2.929,7.07,2.929c2.559,0,5.119-0.976,7.07-2.929c3.905-3.905,3.905-10.236,0-14.142
	c-9.865-9.864-9.865-25.915,0-35.78c9.865-9.866,25.916-9.865,35.78,0c3.905,3.905,10.236,3.905,14.142,0
	c3.905-3.905,3.905-10.236,0-14.142c-13.488-13.487-33.429-16.663-49.97-9.551c-13.094-10.291-29.091-16.177-45.78-16.803
	c-2.092-6.116-3.158-12.499-3.158-19.05c0-32.6,26.522-59.122,59.122-59.122c10.663,0,21.119,2.877,30.24,8.319
	c2.502,1.492,5.53,1.82,8.292,0.897c2.763-0.923,4.986-3.005,6.087-5.702c9.131-22.34,30.618-36.777,54.742-36.777
	c14.327,0,27.796,5.076,38.398,14.187c-10.125,6.139-18.89,14.539-25.484,24.714c-8.503-1.187-17.156,0.214-24.99,4.152
	c-4.935,2.48-6.923,8.49-4.444,13.425c2.48,4.935,8.488,6.925,13.425,4.444c5.419-2.724,11.573-3.174,17.332-1.268
	c5.758,1.906,10.429,5.941,13.152,11.36c1.756,3.494,5.282,5.511,8.942,5.511c1.509,0,3.042-0.343,4.483-1.067
	c4.935-2.48,6.923-8.49,4.444-13.425c-3.158-6.282-7.71-11.57-13.272-15.546c6.462-8.632,15.124-15.286,24.934-19.34
	c0.524-0.208,1.457-0.724,1.488-0.736c6.746-2.577,13.838-3.883,21.076-3.883c32.6,0,59.122,26.522,59.122,59.122
	c0,1.266-0.057,2.545-0.142,3.83c-20.901,6.546-37.872,22.973-44.938,44.11c-18.383,6.921-31.501,24.683-31.501,45.457
	c0,5.523,4.477,9.999,9.999,9.999s9.999-4.477,9.999-9.999c0-15.749,12.812-28.561,28.561-28.561
	c15.749,0,28.561,12.812,28.561,28.561c0,5.523,4.477,9.999,9.999,9.999s9.999-4.477,9.999-9.999
	c0-24.741-18.603-45.204-42.554-48.174c7.357-12.676,20.159-21.683,34.857-23.933c0.077-0.012,0.154-0.027,0.231-0.039
	c0.183-0.027,0.369-0.046,0.553-0.071c2.17-0.291,4.346-0.446,6.498-0.446c27.019,0,49,21.981,49,49
	c0,15.104-6.825,29.141-18.726,38.511c-2.682,2.112-4.102,5.446-3.765,8.841c0.336,3.397,2.382,6.387,5.426,7.931
	c21.499,10.909,34.855,32.637,34.855,56.703C477.378,318.419,448.866,346.932,413.819,346.932z"/>
<g>
</g>
<g>
</g>
<g>
</g>
<g>
</g>
<g>
</g>
<g>
</g>
<g>
</g>
<g>
</g>
<g>
</g>
<g>
</g>
<g>
</g>
<g>
</g>
<g>
</g>
<g>
</g>
<g>
</g>
</svg>
